<svg width="66" height="67" viewBox="0 0 66 67" fill="none" xmlns="http://www.w3.org/2000/svg">
<g clip-path="url(#clip0_15_50)">
<path d="M32.5315 6.00062C41.2235 6.00062 42.2528 6.03967 45.6711 6.19587C48.848 6.33905 50.5636 6.88574 51.7072 7.34132C53.2195 7.94008 54.3123 8.66901 55.4433 9.82748C56.587 10.999 57.2859 12.1054 57.8704 13.6543C58.3152 14.8258 58.8489 16.5961 58.9887 19.8372C59.1412 23.3517 59.1793 24.406 59.1793 33.2963C59.1793 42.1996 59.1412 43.2539 58.9887 46.7554C58.8489 50.0095 58.3152 51.7667 57.8704 52.9382C57.2859 54.4872 56.5743 55.6066 55.4433 56.7651C54.2996 57.9366 53.2195 58.6525 51.7072 59.2512C50.5636 59.7068 48.8353 60.2535 45.6711 60.3967C42.2401 60.5529 41.2108 60.5919 32.5315 60.5919C23.8395 60.5919 22.8102 60.5529 19.3918 60.3967C16.2149 60.2535 14.4994 59.7068 13.3557 59.2512C11.8435 58.6525 10.7506 57.9236 9.61966 56.7651C8.47597 55.5936 7.77705 54.4872 7.1925 52.9382C6.74774 51.7667 6.21402 49.9965 6.07424 46.7554C5.92174 43.2409 5.88362 42.1866 5.88362 33.2963C5.88362 24.393 5.92174 23.3386 6.07424 19.8372C6.21402 16.5831 6.74774 14.8258 7.1925 13.6543C7.77705 12.1054 8.48868 10.986 9.61966 9.82748C10.7633 8.65599 11.8435 7.94008 13.3557 7.34132C14.4994 6.88574 16.2276 6.33905 19.3918 6.19587C22.8102 6.03967 23.8395 6.00062 32.5315 6.00062ZM32.5315 0C23.6997 0 22.5941 0.0390496 19.1249 0.195248C15.6685 0.351446 13.2922 0.924173 11.2335 1.74421C9.08594 2.60331 7.26875 3.73574 5.46427 5.59711C3.64708 7.44546 2.54152 9.30682 1.70282 11.4936C0.90224 13.6153 0.343105 16.0364 0.190614 19.5769C0.0381228 23.1434 0 24.2758 0 33.3223C0 42.3688 0.0381228 43.5012 0.190614 47.0548C0.343105 50.5953 0.90224 53.0293 1.70282 55.138C2.54152 57.3378 3.64708 59.1992 5.46427 61.0475C7.26875 62.8959 9.08594 64.0413 11.2208 64.8874C13.2922 65.7074 15.6558 66.2802 19.1122 66.4364C22.5814 66.5926 23.687 66.6316 32.5188 66.6316C41.3505 66.6316 42.4561 66.5926 45.9253 66.4364C49.3818 66.2802 51.7581 65.7074 53.8167 64.8874C55.9516 64.0413 57.7688 62.8959 59.5733 61.0475C61.3777 59.1992 62.496 57.3378 63.322 55.151C64.1226 53.0293 64.6817 50.6083 64.8342 47.0678C64.9867 43.5143 65.0248 42.3818 65.0248 33.3353C65.0248 24.2888 64.9867 23.1564 64.8342 19.6029C64.6817 16.0624 64.1226 13.6283 63.322 11.5196C62.5214 9.30682 61.4159 7.44546 59.5987 5.59711C57.7942 3.74876 55.977 2.60331 53.8421 1.75723C51.7708 0.93719 49.4072 0.364463 45.9507 0.208264C42.4688 0.0390496 41.3633 0 32.5315 0Z" fill="black"/>
<path d="M32.5315 16.2056C23.3058 16.2056 15.821 23.8723 15.821 33.3223C15.821 42.7723 23.3058 50.439 32.5315 50.439C41.7573 50.439 49.242 42.7723 49.242 33.3223C49.242 23.8723 41.7573 16.2056 32.5315 16.2056ZM32.5315 44.4254C26.5463 44.4254 21.692 39.4531 21.692 33.3223C21.692 27.1915 26.5463 22.2192 32.5315 22.2192C38.5168 22.2192 43.3711 27.1915 43.3711 33.3223C43.3711 39.4531 38.5168 44.4254 32.5315 44.4254Z" fill="black"/>
<path d="M53.8039 15.5286C53.8039 17.7414 52.0503 19.5246 49.9027 19.5246C47.7424 19.5246 46.0015 17.7283 46.0015 15.5286C46.0015 13.3157 47.7551 11.5325 49.9027 11.5325C52.0503 11.5325 53.8039 13.3288 53.8039 15.5286Z" fill="black"/>
</g>
<defs>
<clipPath id="clip0_15_50">
<rect width="65.0629" height="66.6446" fill="white"/>
</clipPath>
</defs>
</svg>
