<svg width="66" height="61" viewBox="0 0 66 61" fill="none" xmlns="http://www.w3.org/2000/svg">
<path d="M65.0821 0.667396C64.7169 0.340946 64.2726 0.123835 63.797 0.0394541C63.3214 -0.0449271 62.8326 0.00662009 62.3832 0.188542L2.67134 24.3783C1.82509 24.719 1.10864 25.335 0.629847 26.1336C0.151058 26.9322 -0.0641534 27.8702 0.0166128 28.8064C0.097379 29.7426 0.469751 30.6263 1.07767 31.3244C1.68559 32.0226 2.49615 32.4974 3.38732 32.6774L18.8589 35.822V53.6799C18.8559 54.6526 19.1351 55.6039 19.6604 56.4104C20.1858 57.2169 20.933 57.8414 21.8053 58.2031C22.6762 58.5713 23.634 58.6596 24.5541 58.4568C25.4742 58.2539 26.3141 57.7691 26.9645 57.0655L34.4248 49.0561L46.2605 59.78C47.1144 60.5641 48.2157 60.9979 49.3572 61C49.8574 60.9996 50.3544 60.9183 50.8304 60.7591C51.6081 60.5036 52.3075 60.0417 52.8591 59.4193C53.4107 58.797 53.7952 58.0359 53.9742 57.2119L65.9337 3.35447C66.0406 2.86875 66.0179 2.36205 65.8679 1.88869C65.7179 1.41533 65.4463 0.993143 65.0821 0.667396ZM47.0678 11.6475L20.6709 31.2165L6.05676 28.2488L47.0678 11.6475ZM23.5732 53.6799V39.1984L30.8773 45.8292L23.5732 53.6799ZM49.3631 56.12L25.0022 34.0072L60.0644 7.99356L49.3631 56.12Z" fill="black"/>
</svg>
