<svg width="66" height="67" viewBox="0 0 66 67" fill="none" xmlns="http://www.w3.org/2000/svg">
<g clip-path="url(#clip0_15_51)">
<path d="M65.2378 19.9935C65.2378 19.9935 64.6025 15.3986 62.6455 13.3811C60.1675 10.7257 57.3973 10.7127 56.1265 10.5565C47.0279 9.87964 33.3672 9.87964 33.3672 9.87964H33.3418C33.3418 9.87964 19.6811 9.87964 10.5824 10.5565C9.31168 10.7127 6.54142 10.7257 4.06344 13.3811C2.10647 15.3986 1.48379 19.9935 1.48379 19.9935C1.48379 19.9935 0.822998 25.3953 0.822998 30.7842V35.8346C0.822998 41.2234 1.47109 46.6253 1.47109 46.6253C1.47109 46.6253 2.10647 51.2201 4.05073 53.2377C6.52871 55.8931 9.78186 55.8019 11.2305 56.0883C16.4406 56.596 33.3545 56.7522 33.3545 56.7522C33.3545 56.7522 47.0279 56.7261 56.1265 56.0623C57.3973 55.9061 60.1675 55.8931 62.6455 53.2377C64.6025 51.2201 65.2378 46.6253 65.2378 46.6253C65.2378 46.6253 65.8859 41.2365 65.8859 35.8346V30.7842C65.8859 25.3953 65.2378 19.9935 65.2378 19.9935ZM26.6321 41.9654V23.2346L44.2068 32.6325L26.6321 41.9654Z" fill="black"/>
</g>
<defs>
<clipPath id="clip0_15_51">
<rect width="65.0629" height="66.6446" fill="white" transform="translate(0.822998)"/>
</clipPath>
</defs>
</svg>
